<?xml version="1.0" standalone="no"?>
<!DOCTYPE svg PUBLIC "-//W3C//DTD SVG 20010904//EN"
 "http://www.w3.org/TR/2001/REC-SVG-20010904/DTD/svg10.dtd">
<svg version="1.0" xmlns="http://www.w3.org/2000/svg"
 width="830.000000pt" height="830.000000pt" viewBox="0 0 830.000000 830.000000"
 preserveAspectRatio="xMidYMid meet">
<metadata>
Created by potrace 1.14, written by Peter Selinger 2001-2017
</metadata>
<g transform="translate(0.000000,830.000000) scale(0.100000,-0.100000)"
fill="#000000" stroke="none">
<path d="M3910 7493 c-267 -19 -644 -113 -920 -230 -226 -97 -475 -248 -664
-405 -89 -74 -267 -249 -356 -349 -77 -87 -237 -310 -297 -414 -205 -355 -338
-739 -377 -1093 -83 -743 71 -1361 481 -1924 330 -454 911 -855 1494 -1031
198 -61 468 -107 704 -123 94 -6 448 10 479 22 8 3 17 22 21 42 17 89 108 230
188 289 91 66 123 84 350 187 259 119 378 185 525 295 283 211 541 509 696
801 174 330 266 710 266 1099 0 180 -16 301 -42 324 -11 9 -24 17 -28 17 -22
0 -38 -35 -49 -107 -49 -313 -183 -569 -413 -789 -192 -183 -486 -342 -804
-433 -155 -45 -559 -111 -831 -137 l-73 -7 0 142 c0 105 3 143 13 145 6 2 64
11 127 21 63 10 167 31 230 47 134 33 373 108 367 114 -2 2 -65 -3 -140 -11
-180 -20 -593 -35 -682 -26 -38 5 -61 9 -51 10 69 5 472 142 646 220 84 37
119 105 87 167 -44 85 -85 89 -257 26 -135 -49 -304 -102 -327 -102 -10 0 -13
41 -13 173 l0 172 95 48 c119 61 351 199 381 228 53 50 52 129 -2 180 -19 18
-37 24 -72 24 -39 0 -64 -10 -152 -61 -388 -227 -819 -394 -1362 -529 -397
-98 -628 -129 -968 -130 -240 0 -373 11 -510 43 l-75 17 -5 135 c-3 74 -4 137
-2 139 1 3 53 -3 115 -13 377 -57 788 -42 1212 44 338 68 638 160 920 280 144
61 389 185 405 205 11 14 15 68 18 250 l4 232 187 12 c295 19 556 53 721 96
23 5 27 2 38 -38 l14 -45 126 -4 c70 -2 131 -1 135 3 5 3 -2 39 -16 78 -13 40
-21 74 -17 76 4 3 63 23 131 46 127 43 302 115 345 144 13 8 24 22 24 30 0 22
-205 229 -314 318 -182 145 -425 291 -617 368 -108 43 -337 110 -459 134 -577
112 -1236 -23 -1728 -353 -334 -225 -585 -504 -752 -836 l-65 -129 -130 -48
c-71 -26 -131 -46 -132 -45 -6 6 57 152 112 261 197 389 519 747 911 1009 144
97 433 229 636 291 121 36 340 80 476 95 141 16 466 8 607 -15 469 -74 920
-276 1270 -567 579 -481 916 -1143 942 -1848 19 -523 -123 -1052 -394 -1470
-205 -315 -457 -573 -758 -774 -124 -84 -461 -250 -618 -307 -132 -47 -167
-75 -167 -135 0 -25 6 -38 25 -50 23 -15 31 -14 132 16 379 112 628 225 914
415 535 355 893 827 1063 1401 40 136 66 255 93 424 14 91 18 172 17 395 0
244 -3 296 -22 403 -63 349 -162 632 -323 927 -140 254 -326 495 -550 710
-537 517 -1259 801 -2014 793 -82 -1 -170 -3 -195 -5z m100 -1148 l0 -385 -89
0 c-150 0 -353 20 -683 66 -27 4 -48 11 -48 16 0 20 100 175 164 254 105 131
229 237 380 327 79 47 220 107 254 107 l22 0 0 -385z m347 360 c162 -61 306
-157 448 -300 145 -145 281 -333 258 -356 -24 -24 -457 -78 -734 -92 l-67 -3
-4 262 c-5 351 0 514 18 514 7 0 44 -11 81 -25z m-1107 -162 c-86 -79 -181
-200 -251 -318 -32 -55 -62 -106 -66 -113 -6 -11 -27 -7 -98 18 -152 54 -148
45 -58 125 125 110 252 200 390 275 70 38 132 69 136 70 5 0 -19 -25 -53 -57z
m2045 -138 c109 -78 259 -215 248 -225 -7 -7 -74 -29 -194 -66 -13 -3 -27 13
-54 63 -67 120 -210 301 -304 384 l-46 40 130 -66 c72 -36 171 -95 220 -130z
m-2535 -500 c30 -9 58 -21 63 -24 4 -4 -1 -27 -12 -52 -27 -60 -67 -224 -84
-343 -9 -59 -20 -102 -28 -107 -23 -15 -167 -69 -304 -114 -215 -71 -493 -134
-707 -159 -43 -5 -48 -3 -48 14 0 37 31 165 43 177 7 7 98 39 202 72 199 63
550 193 622 230 44 22 73 63 73 103 0 53 -66 118 -120 118 -11 0 -36 -7 -55
-14 -19 -8 -35 -13 -35 -10 0 7 107 153 132 180 l19 22 92 -38 c51 -20 117
-45 147 -55z m555 -130 c137 -22 362 -43 538 -51 l157 -7 0 -158 0 -158 -27
-19 c-45 -31 -306 -159 -427 -209 -253 -104 -603 -210 -816 -247 -227 -39
-561 -45 -733 -14 -64 12 -82 28 -32 28 27 0 188 36 350 79 278 73 712 239
930 354 81 42 125 88 125 129 0 35 -32 90 -64 109 -51 31 -48 32 -280 -83
l-39 -20 7 49 c8 53 52 218 67 244 8 15 15 16 81 3 40 -8 114 -21 163 -29z
m693 -1412 l-3 -158 -55 -11 c-509 -103 -976 -221 -1226 -308 -283 -99 -565
-242 -751 -383 l-83 -62 -75 152 c-41 84 -75 159 -75 168 0 27 130 103 295
174 268 115 486 179 1135 335 196 47 482 131 660 193 85 30 161 55 168 56 10
1 12 -34 10 -156z m2117 -465 c-45 -124 -133 -301 -207 -418 -80 -127 -207
-282 -227 -276 -9 3 -59 10 -111 16 -142 17 -136 10 -83 92 25 39 74 131 110
204 59 124 66 135 106 155 92 47 275 177 356 255 47 45 88 80 90 78 2 -2 -13
-49 -34 -106z m-2117 -260 l-3 -132 -30 -7 c-16 -4 -77 -15 -135 -24 -544 -83
-1072 -301 -1387 -574 l-82 -70 -103 110 c-57 61 -104 114 -106 118 -5 14 96
101 203 176 113 78 332 195 490 260 150 62 411 143 580 181 205 45 461 89 538
93 l38 1 -3 -132z m1236 -220 c-20 -40 -52 -97 -70 -125 l-34 -53 -127 0
c-195 0 -413 -24 -791 -86 -84 -14 -157 -22 -164 -18 -6 4 -8 3 -5 -2 3 -6
-35 -18 -86 -28 -51 -10 -137 -29 -191 -42 -54 -13 -102 -21 -107 -19 -4 3 -9
1 -11 -4 -4 -12 -146 -51 -164 -44 -8 3 -14 -1 -15 -8 0 -8 -4 -5 -9 6 -7 17
-9 17 -9 3 -1 -11 -9 -18 -20 -18 -11 0 -21 -5 -23 -11 -2 -7 -9 -5 -17 5 -12
14 -12 16 4 10 14 -6 16 -4 10 6 -5 9 -4 11 3 6 7 -4 12 -1 12 6 0 10 3 9 11
-2 9 -12 10 -11 6 8 -4 17 1 26 21 36 l25 13 -34 11 c-40 13 -74 10 -73 -6 3
-35 4 -37 13 -24 6 11 10 9 14 -7 4 -17 2 -19 -13 -11 -10 6 -22 19 -25 30 -4
11 -10 18 -15 15 -5 -3 -12 0 -16 6 -5 8 -3 9 6 4 10 -6 12 -4 7 9 -5 11 -3
15 5 10 8 -5 9 -2 5 9 -9 23 10 21 25 -2 6 -10 18 -17 26 -14 11 5 11 7 0 14
-11 7 -11 9 1 9 8 0 4 8 -10 21 l-24 20 28 -17 c16 -10 27 -12 27 -5 0 6 5 11
11 11 6 0 7 -5 2 -12 -15 -25 -12 -46 7 -51 24 -6 30 2 19 28 l-8 20 0 -20
c-1 -16 -3 -17 -10 -5 -6 8 -7 19 -3 25 4 5 6 19 5 30 -2 11 7 0 19 -25 12
-25 21 -48 20 -52 -1 -3 6 -5 15 -4 17 3 30 46 13 46 -6 0 -10 7 -10 16 0 9 5
12 13 8 6 -4 4 2 -5 13 -10 11 -18 22 -18 25 0 11 280 77 455 107 116 20 212
33 495 67 326 38 781 112 798 129 3 3 9 5 14 5 4 0 -8 -33 -28 -72z m-1744
-248 c0 -5 -2 -10 -4 -10 -3 0 -8 5 -11 10 -3 6 -1 10 4 10 6 0 11 -4 11 -10z
m11 -24 c-7 -8 -8 -17 -3 -20 5 -3 12 -15 15 -26 4 -18 3 -19 -9 -9 -8 6 -12
14 -9 17 3 3 0 12 -7 19 -9 11 -9 17 3 24 20 13 23 11 10 -5z m-171 -47 c0 -5
-5 -7 -12 -3 -7 5 -9 2 -5 -9 4 -11 2 -14 -9 -10 -11 4 -12 9 -3 19 14 17 29
18 29 3z m1650 -89 c0 -19 -163 -181 -241 -240 -42 -31 -110 -76 -151 -98 -80
-44 -269 -112 -312 -112 l-26 0 0 189 c0 172 2 190 18 195 37 11 393 57 507
65 175 12 205 12 205 1z m-1713 -17 c0 -9 -4 -10 -14 -2 -7 6 -13 12 -13 14 0
1 6 2 13 2 8 0 14 -6 14 -14z m100 -5 c-3 -8 -6 -5 -6 6 -1 11 2 17 5 13 3 -3
4 -12 1 -19z m2097 1 c6 -6 4 -14 -6 -21 -198 -158 -233 -182 -383 -263 l-89
-49 112 108 c62 60 135 140 163 178 l52 69 71 -7 c39 -3 75 -10 80 -15z
m-2163 -12 c-10 -9 -11 -8 -5 6 3 10 9 15 12 12 3 -3 0 -11 -7 -18z m63 -22
c3 -8 1 -15 -4 -15 -6 0 -10 7 -10 15 0 8 2 15 4 15 2 0 6 -7 10 -15z m628
-234 l-3 -158 -102 -11 c-56 -5 -106 -6 -112 -2 -5 5 -21 10 -35 13 -18 3 -14
5 15 6 24 2 34 5 25 9 -20 9 -19 30 0 43 12 9 12 10 -3 5 -15 -5 -17 -2 -13
17 4 14 1 11 -8 -8 -8 -16 -13 -34 -12 -40 2 -5 1 -7 -1 -2 -6 9 -37 9 -46 0
-4 -3 -1 -13 6 -22 10 -14 10 -14 -4 -3 -9 7 -25 10 -35 7 -11 -4 -7 1 8 9 15
9 25 23 24 33 -2 10 -1 12 1 6 5 -16 43 -17 43 -2 0 6 -6 9 -14 6 -10 -4 -14
0 -11 13 3 17 0 18 -23 9 -15 -6 -29 -15 -33 -20 -4 -7 -12 -4 -22 5 -8 9 -20
16 -26 16 -6 0 -11 5 -11 10 0 6 -5 10 -11 10 -8 0 -8 -4 0 -14 8 -10 8 -16
-3 -25 -11 -9 -16 -9 -22 0 -4 8 -3 9 4 5 7 -4 12 -2 12 3 0 6 -5 11 -10 11
-6 0 -9 6 -8 13 2 6 -2 11 -9 10 -7 -2 -10 4 -7 12 4 8 2 15 -4 15 -16 0 -22
-26 -9 -41 10 -11 9 -11 -5 0 -10 7 -16 16 -14 20 2 3 -2 17 -11 31 l-14 25 5
-24 c6 -28 -10 -64 -25 -56 -5 4 -9 0 -9 -7 0 -8 -5 -5 -11 5 -8 14 -8 22 1
30 8 9 10 8 5 -4 -4 -10 0 -16 10 -16 20 0 19 13 -4 36 -19 19 -19 19 7 27 15
4 34 8 42 8 8 0 18 4 21 8 3 5 15 10 26 12 11 3 40 14 64 26 41 20 325 99 359
100 13 0 15 -23 12 -159z m-474 -86 c-3 -3 -9 2 -12 12 -6 14 -5 15 5 6 7 -7
10 -15 7 -18z m140 -26 c19 -1 22 -3 8 -6 -23 -6 -68 16 -59 30 3 5 10 2 15
-7 5 -9 21 -17 36 -17z m-93 -9 c-3 -5 -12 -10 -18 -10 -7 0 -6 4 3 10 19 12
23 12 15 0z m199 -58 c3 -5 -1 -9 -9 -9 -8 0 -15 4 -15 9 0 4 4 8 9 8 6 0 12
-4 15 -8z"/>
<path d="M3535 3170 c3 -5 15 -15 26 -21 19 -10 20 -9 9 10 -6 12 -18 21 -26
21 -8 0 -12 -4 -9 -10z"/>
<path d="M3790 3120 c0 -5 5 -10 11 -10 5 0 7 5 4 10 -3 6 -8 10 -11 10 -2 0
-4 -4 -4 -10z"/>
<path d="M3592 3096 c7 -8 15 -12 17 -11 5 6 -10 25 -20 25 -5 0 -4 -6 3 -14z"/>
<path d="M3633 3104 c9 -3 15 -9 12 -14 -3 -5 -1 -11 4 -14 5 -4 8 2 7 11 -2
10 -11 19 -22 20 -16 2 -16 1 -1 -3z"/>
<path d="M3376 3083 c-6 -14 -5 -15 5 -6 7 7 10 15 7 18 -3 3 -9 -2 -12 -12z"/>
<path d="M3785 3090 c-3 -5 -2 -10 4 -10 5 0 13 5 16 10 3 6 2 10 -4 10 -5 0
-13 -4 -16 -10z"/>
<path d="M3535 3058 c-12 -17 -18 -20 -24 -10 -5 8 -8 2 -8 -18 0 -16 4 -30 9
-30 4 0 8 7 8 15 0 8 8 15 18 15 14 0 15 -2 2 -10 -13 -8 -12 -10 3 -10 9 0
17 4 17 10 0 5 6 7 14 4 8 -3 19 3 24 13 9 16 7 19 -11 20 -12 0 -16 -1 -9 -4
19 -7 14 -20 -8 -18 -30 2 -36 14 -14 30 10 8 14 15 7 15 -6 0 -19 -10 -28
-22z"/>
<path d="M3623 3065 c0 -8 4 -12 9 -9 5 3 6 10 3 15 -9 13 -12 11 -12 -6z"/>
<path d="M3462 3031 c-11 -7 -10 -10 3 -15 20 -7 38 1 30 15 -7 11 -16 11 -33
0z"/>
<path d="M3632 2756 c7 -8 15 -12 17 -11 5 6 -10 25 -20 25 -5 0 -4 -6 3 -14z"/>
<path d="M3591 2751 c-9 -6 -8 -11 4 -21 8 -7 18 -10 22 -7 3 4 12 2 20 -4 18
-15 -2 -40 -25 -32 -9 3 -3 -6 13 -20 35 -32 38 -32 56 -10 12 14 12 15 0 9
-10 -7 -12 -3 -6 13 4 15 1 23 -10 27 -11 5 -13 10 -5 19 9 11 7 12 -9 8 -12
-3 -21 -1 -21 5 0 14 -24 22 -39 13z m70 -88 c13 -15 12 -15 -8 -4 -24 12 -29
21 -14 21 5 0 15 -7 22 -17z"/>
<path d="M3545 2730 c-4 -6 -11 -8 -16 -5 -5 4 -9 2 -9 -4 0 -15 20 -24 20 -9
1 8 9 4 19 -9 11 -13 22 -23 26 -23 4 0 1 8 -6 17 -12 15 -12 16 5 9 19 -7 19
-6 1 14 -20 22 -31 25 -40 10z m25 -10 c0 -5 -2 -10 -4 -10 -3 0 -8 5 -11 10
-3 6 -1 10 4 10 6 0 11 -4 11 -10z"/>
<path d="M3680 2720 c0 -5 5 -10 11 -10 5 0 7 5 4 10 -3 6 -8 10 -11 10 -2 0
-4 -4 -4 -10z"/>
<path d="M3480 2715 c0 -5 5 -17 10 -25 5 -8 10 -10 10 -5 0 6 -5 17 -10 25
-5 8 -10 11 -10 5z"/>
<path d="M3711 2704 c0 -11 3 -14 6 -6 3 7 2 16 -1 19 -3 4 -6 -2 -5 -13z"/>
<path d="M3696 2677 c3 -10 9 -15 12 -12 3 3 0 11 -7 18 -10 9 -11 8 -5 -6z"/>
<path d="M3798 2663 c7 -3 16 -2 19 1 4 3 -2 6 -13 5 -11 0 -14 -3 -6 -6z"/>
<path d="M3740 2649 c0 -5 5 -7 10 -4 6 3 10 8 10 11 0 2 -4 4 -10 4 -5 0 -10
-5 -10 -11z"/>
<path d="M3836 2613 c-6 -14 -5 -15 5 -6 7 7 10 15 7 18 -3 3 -9 -2 -12 -12z"/>
<path d="M3870 2591 c0 -7 -6 -11 -13 -8 -8 3 -14 -1 -14 -9 0 -8 4 -14 7 -14
12 0 33 30 26 37 -3 3 -6 1 -6 -6z"/>
<path d="M3805 2560 c-3 -5 -1 -10 4 -10 6 0 11 5 11 10 0 6 -2 10 -4 10 -3 0
-8 -4 -11 -10z"/>
<path d="M1700 7158 c-96 -49 -132 -177 -77 -270 47 -81 155 -117 239 -81 111
50 156 156 109 258 -49 106 -166 146 -271 93z"/>
<path d="M6415 7166 c-64 -29 -115 -110 -115 -184 0 -85 81 -177 166 -189 124
-16 250 101 229 214 -19 105 -96 173 -194 173 -31 -1 -69 -7 -86 -14z"/>
<path d="M1415 6535 c-50 -49 -20 -125 48 -125 68 0 95 82 43 127 -35 30 -61
29 -91 -2z"/>
<path d="M6755 6535 c-22 -21 -26 -32 -21 -58 9 -44 33 -67 73 -67 93 0 98
128 6 146 -26 5 -37 1 -58 -21z"/>
<path d="M6127 5595 c-50 -19 -65 -30 -174 -131 l-94 -86 -57 15 c-31 8 -151
42 -267 76 -115 34 -227 63 -247 64 -62 2 -108 -37 -108 -93 0 -25 28 -47 234
-185 97 -65 176 -121 176 -125 0 -4 -62 -64 -137 -133 -76 -69 -151 -139 -167
-156 -17 -17 -37 -31 -47 -31 -9 0 -60 14 -114 30 -138 43 -167 41 -221 -14
-39 -39 -44 -48 -44 -90 l0 -47 158 -103 158 -104 43 -178 c24 -99 50 -189 57
-201 22 -35 67 -39 119 -8 25 14 51 38 59 53 9 18 15 87 20 211 l6 184 92 87
c137 128 174 160 185 160 6 0 18 -48 28 -107 29 -179 37 -193 108 -193 27 0
42 8 69 38 40 44 38 37 68 317 l22 200 148 145 c119 118 149 153 159 186 21
79 10 128 -42 182 -48 50 -117 63 -190 37z"/>
<path d="M7259 5452 c-45 -38 -16 -122 43 -122 25 0 68 44 68 70 0 26 -43 70
-68 70 -11 0 -30 -8 -43 -18z"/>
<path d="M7343 4894 c-18 -9 -39 -32 -49 -52 -15 -32 -15 -41 -3 -77 19 -54
72 -82 124 -65 76 25 100 112 48 170 -34 37 -77 46 -120 24z"/>
<path d="M827 4889 c-21 -13 -47 -61 -47 -89 0 -58 72 -119 125 -106 89 22
113 130 41 188 -23 19 -91 23 -119 7z"/>
<path d="M807 4504 c-35 -35 -42 -75 -21 -120 20 -41 72 -69 112 -59 42 11 82
59 82 100 0 47 -13 71 -50 90 -45 23 -93 19 -123 -11z"/>
<path d="M7336 4509 c-48 -38 -51 -124 -5 -161 31 -26 109 -24 138 3 50 47 50
111 -1 154 -37 32 -94 34 -132 4z"/>
<path d="M833 4168 c-31 -15 -56 -72 -48 -108 9 -42 58 -80 104 -80 46 0 79
23 97 66 27 64 -24 135 -96 133 -19 0 -45 -5 -57 -11z"/>
<path d="M7322 4155 c-74 -62 -33 -175 63 -175 49 0 82 22 101 66 12 29 12 39
0 68 -29 69 -108 88 -164 41z"/>
<path d="M952 3595 c-69 -58 -43 -149 51 -179 26 -8 83 18 103 48 25 39 14
104 -23 133 -39 31 -93 30 -131 -2z"/>
<path d="M7197 3600 c-49 -39 -45 -130 9 -165 83 -54 187 30 149 121 -26 63
-106 85 -158 44z"/>
<path d="M1043 3272 c-74 -57 -33 -172 62 -172 52 0 82 21 94 66 11 41 2 73
-30 103 -28 26 -94 28 -126 3z"/>
<path d="M7119 3275 c-14 -8 -32 -28 -39 -45 -41 -99 91 -181 162 -101 77 86
-21 202 -123 146z"/>
<path d="M1240 2730 c-11 -11 -20 -33 -20 -50 0 -65 79 -94 119 -44 27 35 26
59 -4 89 -29 30 -68 32 -95 5z"/>
<path d="M6942 2734 c-46 -32 -16 -124 41 -124 41 0 67 27 67 70 0 42 -26 70
-65 70 -11 0 -31 -7 -43 -16z"/>
<path d="M1795 2242 c-22 -8 -41 -16 -42 -16 -5 -3 59 -121 65 -121 26 1 82
29 82 41 0 16 -46 101 -58 108 -4 2 -25 -3 -47 -12z"/>
<path d="M1985 2131 c-30 -29 -136 -91 -157 -91 -24 0 -23 -17 6 -67 l24 -41
-22 -31 c-24 -34 -33 -37 -60 -16 -28 21 -31 20 -56 -22 l-22 -37 23 -17 c26
-19 26 -20 -48 -107 l-43 -49 41 -27 c31 -21 44 -25 54 -16 11 9 32 1 95 -37
47 -28 74 -49 65 -51 -9 -2 -27 4 -42 13 -29 19 -38 13 -47 -31 -6 -28 -3 -34
27 -53 57 -35 92 -37 135 -8 33 22 40 23 57 11 27 -20 31 -18 55 23 17 29 18
38 8 44 -7 5 -16 9 -20 9 -12 0 -9 13 7 34 12 16 19 18 40 8 23 -11 27 -9 49
26 l24 37 -21 16 -21 17 39 56 c21 31 36 59 33 62 -3 3 -66 42 -139 87 -74 45
-133 87 -132 92 5 25 42 10 177 -73 l145 -90 25 39 26 39 -37 23 c-21 13 -80
50 -131 82 l-93 57 20 22 21 22 -33 32 c-38 37 -46 39 -72 13z m-35 -291 c12
-7 12 -12 -4 -29 -14 -16 -22 -18 -36 -9 -14 9 -16 15 -7 30 13 20 25 22 47 8z
m119 -73 c8 -10 7 -18 -2 -32 -11 -14 -17 -16 -35 -6 -18 10 -20 15 -12 31 12
23 33 26 49 7z m-199 -56 c0 -4 -8 -15 -18 -24 -16 -15 -21 -15 -38 -3 -18 14
-18 15 0 35 14 16 23 18 37 10 11 -5 19 -13 19 -18z m111 -61 c19 -10 19 -12
2 -34 -15 -20 -22 -22 -38 -14 -28 15 -28 14 -15 37 12 24 23 26 51 11z"/>
<path d="M1665 2093 c-22 -9 -41 -17 -43 -18 -1 -1 12 -29 28 -63 l31 -61 44
17 c25 9 45 21 45 27 0 10 -58 116 -63 114 -1 0 -20 -7 -42 -16z"/>
<path d="M6347 2064 l-37 -24 46 -93 c96 -192 180 -297 237 -297 34 0 79 31
93 65 8 19 14 37 14 40 0 5 -76 55 -84 55 -3 0 -6 -10 -8 -22 -2 -12 -8 -23
-15 -25 -16 -6 -95 117 -153 235 -24 51 -47 92 -50 91 -3 0 -22 -11 -43 -25z"/>
<path d="M1626 1891 c-3 -5 -46 -36 -96 -70 l-90 -62 25 -49 25 -50 68 49 c37
27 83 63 102 79 l34 29 -18 42 c-18 39 -38 52 -50 32z"/>
<path d="M2384 1822 c-44 -47 -97 -92 -138 -116 -36 -21 -66 -41 -66 -44 0 -3
11 -25 25 -49 22 -36 29 -42 44 -33 13 7 22 6 29 -3 14 -18 42 -75 42 -86 0
-17 -111 -68 -177 -82 l-60 -12 14 -26 c7 -14 18 -38 23 -53 l9 -26 53 12
c111 27 185 72 295 179 l71 70 11 -39 c5 -21 13 -50 16 -64 4 -18 -9 -60 -45
-145 -29 -66 -56 -130 -60 -141 -8 -19 -3 -24 41 -43 l50 -20 24 54 c14 30 32
71 40 92 l16 38 23 -28 23 -29 52 26 c54 28 60 36 37 56 -8 6 -29 33 -46 60
l-31 49 65 152 c36 84 66 158 66 164 0 8 -73 45 -91 45 -3 0 -26 -46 -50 -102
-35 -83 -45 -98 -47 -75 -2 15 -9 27 -18 27 -18 0 -18 5 2 36 15 23 15 26 0
43 -10 11 -42 29 -72 41 -30 12 -54 25 -54 29 1 3 11 19 25 35 l23 29 -39 29
c-21 15 -42 28 -46 27 -5 0 -40 -35 -79 -77z m80 -141 l38 -17 -41 -52 c-23
-28 -45 -52 -49 -52 -4 0 -19 20 -33 44 l-26 43 31 26 c37 31 31 30 80 8z"/>
<path d="M6199 1815 c-93 -53 -124 -152 -76 -245 70 -139 263 -113 346 47 10
20 8 24 -26 42 l-38 19 -20 -36 c-27 -48 -81 -84 -119 -80 -47 5 -40 21 22 54
31 17 67 45 80 64 73 109 -46 204 -169 135z m96 -98 c-13 -20 -82 -67 -99 -67
-11 0 -6 45 8 62 22 29 67 48 88 37 16 -9 17 -12 3 -32z"/>
<path d="M5929 1670 c-46 -13 -69 -30 -88 -68 -11 -20 -20 -32 -21 -27 -2 31
-17 36 -53 19 -21 -10 -37 -24 -37 -32 0 -21 132 -292 142 -292 11 0 68 29 68
35 0 2 -16 39 -35 81 -28 62 -34 84 -29 113 10 51 32 81 60 81 26 0 66 -60
106 -160 12 -30 23 -57 25 -59 1 -2 21 4 43 14 47 21 47 17 -10 140 -59 128
-107 172 -171 155z"/>
<path d="M2989 1652 l-115 -3 5 -42 c6 -40 8 -42 44 -45 38 -3 41 -9 30 -50
-5 -21 -10 -23 -40 -17 -19 3 -40 8 -47 11 -9 3 -17 -10 -25 -40 -6 -25 -11
-47 -11 -50 0 -2 18 -7 40 -11 49 -8 46 -16 -38 -105 l-58 -61 10 -49 c5 -28
13 -50 17 -50 4 0 24 19 43 42 20 23 36 37 36 32 0 -5 -11 -53 -24 -107 -26
-110 -26 -109 42 -111 l35 -1 32 125 c28 114 32 122 40 93 l10 -31 38 31 37
32 -34 58 c-19 31 -31 58 -28 60 4 2 21 0 39 -5 26 -7 35 -16 45 -49 l12 -41
53 6 c29 3 53 4 53 2 0 -10 -86 -55 -127 -66 l-41 -13 20 -43 c19 -38 25 -42
48 -38 21 5 30 0 43 -19 15 -24 15 -25 -6 -31 -12 -3 -52 -6 -89 -6 -38 0 -68
-3 -68 -6 0 -3 5 -25 11 -50 l11 -44 53 0 c157 0 307 75 377 187 l21 36 -24
18 c-13 10 -37 21 -54 24 -68 14 -68 15 -49 36 16 18 15 19 -12 29 l-28 11 55
31 c59 33 100 68 131 111 l20 27 -23 19 c-13 10 -48 24 -77 31 -52 11 -53 12
-36 31 20 22 22 20 -32 43 l-41 18 -46 -35 c-38 -29 -95 -56 -154 -73 -8 -2
-5 -16 10 -44 19 -35 26 -39 48 -35 20 5 30 0 42 -19 20 -30 18 -32 -56 -41
l-58 -7 6 45 c7 44 7 45 -25 52 -30 7 -32 9 -25 43 9 50 20 60 63 64 l37 3
-25 45 -25 45 -116 -3z m366 -202 c18 -6 17 -9 -11 -23 -30 -16 -31 -15 -53
13 l-21 30 32 -7 c18 -3 42 -9 53 -13z m-26 -295 c2 -3 -7 -13 -20 -24 -24
-19 -24 -19 -46 1 -34 32 -29 41 19 34 23 -4 44 -9 47 -11z"/>
<path d="M3645 1531 c-10 -34 -84 -141 -131 -191 l-45 -48 23 -48 c12 -27 24
-51 25 -53 2 -3 15 6 29 20 l26 24 -6 -145 c-4 -80 -9 -164 -12 -187 l-5 -41
50 -4 51 -3 4 40 c3 22 10 141 16 264 l10 223 36 65 c20 35 35 66 33 67 -7 6
-81 36 -90 36 -4 0 -10 -9 -14 -19z"/>
<path d="M3849 1504 c-28 -29 -31 -37 -19 -44 8 -5 31 -21 50 -35 l35 -27 -91
7 -92 7 -3 -50 -4 -50 89 -7 88 -7 -6 -30 c-3 -17 -6 -42 -6 -56 0 -25 0 -25
-75 -19 l-75 5 0 -47 c0 -48 0 -48 38 -55 20 -3 54 -6 76 -6 31 0 37 -3 32
-16 -3 -9 -6 -37 -6 -63 l0 -47 -95 4 -95 4 0 -49 0 -50 133 -7 c72 -3 180 -9
240 -13 l107 -6 0 52 0 51 -52 0 c-29 0 -70 3 -90 6 l-38 7 0 58 0 59 80 0 80
0 0 50 0 50 -75 0 -75 0 0 55 0 55 90 0 90 0 0 50 0 50 -82 0 c-78 0 -80 1
-65 18 10 10 17 21 17 25 0 7 -148 107 -159 107 -4 0 -23 -16 -42 -36z"/>
<path d="M5562 1515 c-18 -8 -40 -28 -50 -45 -18 -32 -32 -39 -32 -15 0 8 -3
15 -6 15 -18 0 -84 -24 -84 -31 0 -11 54 -155 91 -244 l30 -73 37 15 c20 8 38
16 40 18 1 1 -11 37 -28 79 -34 86 -34 87 -19 139 13 46 51 76 75 56 20 -17
57 -90 79 -159 10 -30 19 -58 21 -62 5 -8 84 22 84 32 0 3 -11 38 -24 76 -29
86 -68 164 -94 187 -27 25 -80 30 -120 12z"/>
<path d="M5293 1422 c-28 -2 -43 -8 -43 -17 0 -8 -16 -16 -40 -20 -94 -16
-169 -112 -156 -203 3 -24 15 -60 27 -79 24 -38 84 -73 126 -73 38 1 107 33
125 59 13 19 19 20 47 10 17 -6 42 -9 54 -5 20 5 22 10 19 46 -3 33 -9 43 -29
51 -29 11 -46 49 -68 154 -9 44 -17 80 -18 80 -1 0 -21 -1 -44 -3z m-14 -159
c12 -43 14 -74 5 -98 -7 -18 -55 -45 -79 -45 -28 0 -65 46 -65 81 0 43 56 99
99 99 26 0 31 -5 40 -37z"/>
<path d="M4697 1408 c-36 -10 -37 -11 -31 -47 13 -77 84 -435 87 -437 6 -6 87
19 87 26 0 5 -9 47 -20 94 -24 98 -17 128 32 155 46 26 66 -9 98 -173 l12 -58
41 6 c23 4 43 9 46 11 8 9 -31 182 -54 232 -13 28 -35 59 -49 68 -35 23 -109
15 -141 -15 -26 -25 -27 -23 -39 55 -12 72 -17 95 -24 94 -4 -1 -24 -6 -45
-11z"/>
<path d="M4465 1226 c-79 -29 -124 -113 -110 -205 8 -54 61 -114 116 -129 43
-12 118 -1 153 21 22 15 66 83 66 102 0 3 -17 13 -37 22 -35 14 -38 14 -48 -3
-23 -39 -45 -54 -84 -54 -78 0 -107 94 -46 148 33 28 65 28 99 1 l27 -21 30
28 c16 15 29 31 29 35 0 5 -15 19 -33 33 -43 33 -108 41 -162 22z"/>
</g>
</svg>
