<?xml version="1.0" encoding="utf-8"?>
<!-- Generator: Adobe Illustrator 26.3.1, SVG Export Plug-In . SVG Version: 6.00 Build 0)  -->
<svg version="1.1" id="レイヤー_1" xmlns="http://www.w3.org/2000/svg" xmlns:xlink="http://www.w3.org/1999/xlink" x="0px"
	 y="0px" viewBox="0 0 187 148" style="enable-background:new 0 0 187 148;" xml:space="preserve" fill="#fff">
<g>
	<path d="M46.35,131.14c0,0.42-0.02,0.77-0.05,1.06s-0.09,0.52-0.16,0.71s-0.16,0.33-0.26,0.41s-0.23,0.13-0.37,0.13H33.06
		c-0.46,0-0.85-0.14-1.17-0.41c-0.31-0.27-0.47-0.72-0.47-1.33v-24.67c0-0.14,0.05-0.27,0.14-0.38s0.24-0.2,0.45-0.27
		c0.21-0.07,0.49-0.13,0.85-0.17s0.8-0.06,1.33-0.06c0.55,0,0.99,0.02,1.34,0.06s0.63,0.1,0.84,0.17s0.36,0.16,0.45,0.27
		s0.14,0.24,0.14,0.38v21.86h8.55c0.14,0,0.26,0.04,0.37,0.12s0.19,0.2,0.26,0.38c0.07,0.17,0.12,0.41,0.16,0.69
		C46.33,130.37,46.35,130.72,46.35,131.14z"/>
	<path d="M57.29,132.69c0,0.14-0.05,0.27-0.14,0.38s-0.24,0.2-0.45,0.27s-0.49,0.13-0.84,0.17s-0.8,0.06-1.34,0.06
		c-0.53,0-0.98-0.02-1.33-0.06c-0.36-0.04-0.64-0.1-0.85-0.17s-0.36-0.16-0.45-0.27s-0.14-0.24-0.14-0.38v-25.66
		c0-0.14,0.05-0.27,0.14-0.38s0.25-0.2,0.46-0.27c0.22-0.07,0.5-0.13,0.85-0.17s0.79-0.06,1.32-0.06c0.55,0,0.99,0.02,1.34,0.06
		s0.63,0.1,0.84,0.17s0.36,0.16,0.45,0.27c0.09,0.11,0.14,0.24,0.14,0.38C57.29,107.03,57.29,132.69,57.29,132.69z"/>
	<path d="M81.47,125.3c0,1.43-0.27,2.68-0.8,3.76c-0.53,1.08-1.25,1.98-2.16,2.7s-1.97,1.26-3.19,1.63
		c-1.22,0.36-2.52,0.55-3.91,0.55c-0.94,0-1.81-0.08-2.61-0.23c-0.81-0.15-1.52-0.34-2.13-0.56c-0.62-0.22-1.13-0.44-1.54-0.68
		s-0.71-0.45-0.89-0.63c-0.18-0.18-0.31-0.44-0.39-0.79c-0.08-0.34-0.12-0.84-0.12-1.48c0-0.43,0.01-0.8,0.04-1.09
		s0.07-0.53,0.14-0.71c0.06-0.18,0.15-0.31,0.25-0.39c0.11-0.08,0.23-0.12,0.37-0.12c0.2,0,0.47,0.12,0.83,0.35s0.81,0.49,1.38,0.77
		c0.56,0.28,1.23,0.54,2,0.77c0.78,0.23,1.68,0.35,2.7,0.35c0.67,0,1.27-0.08,1.81-0.24c0.53-0.16,0.98-0.39,1.35-0.68
		c0.37-0.29,0.65-0.66,0.85-1.09s0.29-0.92,0.29-1.45c0-0.62-0.17-1.14-0.5-1.58c-0.34-0.44-0.77-0.83-1.31-1.18
		c-0.54-0.34-1.15-0.67-1.84-0.97s-1.39-0.62-2.12-0.96s-1.44-0.72-2.12-1.14c-0.69-0.43-1.3-0.94-1.84-1.53s-0.98-1.3-1.31-2.11
		c-0.34-0.81-0.5-1.78-0.5-2.92c0-1.3,0.24-2.45,0.72-3.43c0.48-0.99,1.13-1.81,1.95-2.46s1.78-1.14,2.9-1.46
		c1.11-0.32,2.29-0.48,3.54-0.48c0.64,0,1.29,0.05,1.93,0.15s1.25,0.23,1.81,0.4s1.06,0.36,1.49,0.57s0.72,0.38,0.86,0.52
		s0.23,0.26,0.28,0.36c0.05,0.1,0.09,0.23,0.13,0.39c0.03,0.16,0.06,0.36,0.07,0.61s0.02,0.55,0.02,0.91c0,0.41-0.01,0.75-0.03,1.03
		s-0.06,0.51-0.1,0.69c-0.05,0.18-0.12,0.32-0.21,0.4s-0.21,0.13-0.37,0.13c-0.15,0-0.4-0.1-0.73-0.29s-0.75-0.41-1.24-0.64
		s-1.06-0.44-1.7-0.63s-1.35-0.28-2.12-0.28c-0.6,0-1.13,0.07-1.57,0.22c-0.45,0.15-0.82,0.35-1.12,0.61s-0.53,0.57-0.67,0.93
		c-0.15,0.36-0.22,0.75-0.22,1.15c0,0.6,0.16,1.12,0.49,1.56s0.77,0.83,1.32,1.18c0.55,0.34,1.18,0.67,1.88,0.97
		s1.41,0.62,2.14,0.96s1.44,0.72,2.14,1.14c0.7,0.43,1.32,0.94,1.87,1.53s0.99,1.29,1.32,2.1C81.3,123.26,81.47,124.21,81.47,125.3z
		"/>
	<path d="M105.92,108.55c0,0.41-0.02,0.75-0.05,1.04s-0.09,0.52-0.16,0.69s-0.16,0.3-0.26,0.39c-0.1,0.08-0.22,0.13-0.35,0.13h-6.8
		v21.9c0,0.14-0.04,0.27-0.14,0.38c-0.09,0.11-0.24,0.2-0.45,0.27s-0.49,0.13-0.85,0.17s-0.8,0.06-1.33,0.06s-0.98-0.02-1.33-0.06
		c-0.36-0.04-0.64-0.1-0.85-0.17s-0.36-0.16-0.45-0.27s-0.14-0.24-0.14-0.38v-21.9h-6.8c-0.14,0-0.26-0.04-0.36-0.13
		c-0.1-0.08-0.18-0.21-0.25-0.39s-0.12-0.41-0.16-0.69c-0.04-0.29-0.05-0.63-0.05-1.04c0-0.42,0.02-0.78,0.05-1.07
		s0.09-0.53,0.16-0.7s0.15-0.3,0.25-0.38c0.1-0.08,0.22-0.12,0.36-0.12h19.15c0.13,0,0.24,0.04,0.35,0.12s0.19,0.2,0.26,0.38
		c0.07,0.17,0.12,0.41,0.16,0.7S105.92,108.13,105.92,108.55z"/>
	<path d="M127.38,131.29c0,0.41-0.02,0.75-0.05,1.02s-0.09,0.49-0.16,0.66s-0.16,0.29-0.26,0.37s-0.22,0.12-0.35,0.12h-13.64
		c-0.46,0-0.85-0.14-1.17-0.41c-0.31-0.27-0.47-0.72-0.47-1.33v-23.68c0-0.62,0.16-1.06,0.47-1.33c0.32-0.27,0.7-0.41,1.17-0.41
		h13.56c0.13,0,0.24,0.04,0.34,0.1c0.1,0.07,0.18,0.19,0.25,0.37c0.07,0.17,0.12,0.4,0.16,0.67s0.05,0.62,0.05,1.04
		c0,0.39-0.02,0.72-0.05,1c-0.04,0.27-0.09,0.49-0.16,0.66s-0.15,0.29-0.25,0.37s-0.21,0.12-0.34,0.12h-9.7v6.63h8.21
		c0.13,0,0.24,0.04,0.35,0.12c0.1,0.08,0.19,0.2,0.26,0.36s0.12,0.38,0.16,0.65s0.05,0.61,0.05,1c0,0.41-0.02,0.74-0.05,1.01
		c-0.04,0.27-0.09,0.48-0.16,0.64s-0.16,0.28-0.26,0.35c-0.11,0.07-0.22,0.1-0.35,0.1h-8.21v7.66h9.78c0.13,0,0.24,0.04,0.35,0.12
		s0.19,0.2,0.26,0.37s0.12,0.39,0.16,0.66C127.36,130.54,127.38,130.88,127.38,131.29z"/>
	<path d="M156.81,131.52c0,0.32-0.06,0.61-0.17,0.86s-0.26,0.46-0.45,0.63s-0.41,0.29-0.67,0.37s-0.52,0.12-0.79,0.12h-2.35
		c-0.49,0-0.91-0.05-1.27-0.15s-0.69-0.28-0.99-0.54s-0.59-0.61-0.87-1.05s-0.59-1.01-0.94-1.71l-6.76-12.7
		c-0.39-0.76-0.79-1.57-1.2-2.45s-0.77-1.73-1.09-2.55h-0.04c0.06,1.01,0.1,2.01,0.13,3.01s0.04,2.03,0.04,3.1v14.21
		c0,0.14-0.04,0.27-0.12,0.38s-0.21,0.21-0.4,0.28c-0.19,0.08-0.44,0.14-0.77,0.18c-0.32,0.04-0.74,0.06-1.24,0.06
		c-0.49,0-0.9-0.02-1.22-0.06s-0.57-0.1-0.76-0.18c-0.18-0.08-0.31-0.17-0.38-0.28s-0.1-0.24-0.1-0.38v-24.42
		c0-0.66,0.19-1.15,0.58-1.48s0.86-0.49,1.42-0.49h2.96c0.53,0,0.98,0.04,1.34,0.14c0.36,0.09,0.69,0.24,0.98,0.45
		s0.56,0.5,0.81,0.87s0.51,0.83,0.78,1.38l5.29,9.93c0.31,0.6,0.61,1.19,0.91,1.77c0.3,0.58,0.59,1.16,0.87,1.74
		s0.55,1.15,0.82,1.71s0.52,1.12,0.78,1.68h0.02c-0.04-0.98-0.07-2-0.09-3.07c-0.02-1.06-0.03-2.08-0.03-3.04v-12.75
		c0-0.14,0.04-0.27,0.13-0.38c0.08-0.11,0.22-0.21,0.42-0.29s0.45-0.14,0.78-0.18c0.32-0.04,0.74-0.05,1.24-0.05
		c0.48,0,0.87,0.02,1.2,0.05c0.32,0.03,0.57,0.09,0.75,0.18c0.18,0.08,0.3,0.18,0.37,0.29c0.07,0.11,0.1,0.24,0.1,0.38v24.43H156.81
		z"/>
</g>
<g>
	<path d="M69.63,51.18c-12.49-18.12-40.22-37.6-41.39-38.42c-0.07-0.05-0.14-0.08-0.21-0.12c-0.03-0.02-0.07-0.04-0.1-0.06
		c-0.19-0.09-0.37-0.17-0.57-0.22c-0.01,0-0.01,0-0.02,0c-0.2-0.05-0.41-0.06-0.61-0.06c-0.06,0-0.11,0.01-0.17,0.01
		c-0.15,0.01-0.29,0.04-0.44,0.08c-0.04,0.01-0.09,0.01-0.13,0.02c-0.03,0.01-0.05,0.02-0.07,0.03c-0.18,0.06-0.35,0.14-0.51,0.24
		c-0.07,0.04-0.12,0.09-0.18,0.14c-0.09,0.07-0.18,0.14-0.27,0.23c-0.07,0.07-0.14,0.15-0.2,0.24c-0.03,0.03-0.06,0.06-0.08,0.09
		c-0.03,0.04-0.05,0.09-0.07,0.13c-0.06,0.09-0.12,0.19-0.16,0.29c-0.04,0.1-0.07,0.2-0.11,0.31c-0.02,0.08-0.07,0.15-0.08,0.24
		c-0.14,0.72-3.39,17.34-1.5,34.27c-2.53-2-4.42-4.27-4.44-4.3c-0.73-0.89-1.96-1.18-3.01-0.71c-1.05,0.47-1.66,1.57-1.5,2.71
		c0.16,1.06,1.64,10.48,5.82,15.29c0.86,0.99,1.89,1.89,2.99,2.71c-3.17-1.32-4.84-3.12-4.85-3.12c-0.83-0.94-2.22-1.14-3.28-0.47
		s-1.48,2.01-0.99,3.16c0.17,0.41,3.94,9.17,10.8,13.53c-1.1-0.36-2.04-0.71-2.61-0.94c-1.08-0.44-2.32-0.1-3.02,0.84
		c-0.7,0.94-0.67,2.23,0.06,3.13c0.27,0.33,6.62,8.1,15.46,10.99c5.27,1.71,8.08,1.82,8.67,1.82c0.04,0,0.07,0,0.09,0
		c1.4-0.03,2.5-1.19,2.48-2.59c-0.02-1.4-1.17-2.53-2.57-2.53c0,0,0,0,0,0c-0.02,0-2.33-0.02-7.08-1.56
		c-2.03-0.66-3.92-1.66-5.61-2.76c0.29,0,0.58,0,0.86-0.01c4.94-0.27,8.31-1.87,8.45-1.94c1.06-0.51,1.62-1.68,1.37-2.84
		s-1.26-1.99-2.44-2.03c-0.03,0-3.05-0.13-9.75-3.04c-1.99-0.87-3.75-2.35-5.23-3.98c5.48,1.35,10.64-0.5,10.87-0.58
		c1.02-0.37,1.7-1.35,1.68-2.44s-0.72-2.05-1.75-2.39c-2.05-0.68-7.99-3.15-10.74-6.31c-0.98-1.13-1.81-2.79-2.49-4.55
		c0.39,0.27,0.8,0.54,1.21,0.79c4.74,2.88,11.14,1.33,11.86,1.14c1.37-0.36,2.19-1.76,1.83-3.12c-0.36-1.37-1.76-2.19-3.12-1.83
		c-0.81,0.21-2.83,0.54-4.82,0.34c0.12-0.36,0.17-0.74,0.11-1.14c-1.53-11.29-0.45-23,0.42-29.47c5.61,6.29,17.11,20.51,27.98,42.14
		c5.26,10.47,5.35,22.9,5.35,23.03c0,1.41,1.15,2.55,2.56,2.55c0,0,0,0,0,0c1.41,0,2.56-1.15,2.56-2.56
		c0-0.56-0.08-13.74-5.89-25.32c-5.94-11.81-12-21.41-17.26-28.8c7.81,6.71,16.31,14.89,21.65,22.63
		C77.24,71.24,79.25,85.4,79.27,85.54c0.17,1.29,1.27,2.22,2.53,2.22c0.11,0,0.22-0.01,0.34-0.02c1.4-0.18,2.39-1.47,2.2-2.87
		C84.27,84.24,82.2,69.43,69.63,51.18z"/>
	<path d="M175.75,63.87c0.49-1.15,0.07-2.47-0.98-3.14c-1.05-0.67-2.44-0.49-3.28,0.44c-0.02,0.02-1.69,1.82-4.86,3.14
		c1.1-0.81,2.13-1.72,2.99-2.71c4.18-4.81,5.67-14.23,5.82-15.29c0.17-1.14-0.44-2.24-1.49-2.71c-1.05-0.47-2.28-0.18-3.01,0.71
		c-0.02,0.03-1.9,2.28-4.42,4.28c1.88-16.91-1.36-33.5-1.51-34.23c-0.02-0.08-0.05-0.14-0.08-0.22c-0.03-0.11-0.06-0.22-0.11-0.33
		c-0.04-0.1-0.1-0.19-0.16-0.28c-0.03-0.04-0.05-0.09-0.08-0.14c-0.02-0.04-0.06-0.06-0.08-0.1c-0.06-0.08-0.13-0.16-0.2-0.23
		c-0.09-0.09-0.18-0.17-0.28-0.24c-0.06-0.04-0.11-0.09-0.17-0.13c-0.16-0.1-0.34-0.18-0.52-0.24c-0.02-0.01-0.04-0.02-0.07-0.03
		c-0.04-0.01-0.08-0.01-0.12-0.02c-0.15-0.04-0.3-0.06-0.45-0.08c-0.05,0-0.1-0.01-0.16-0.01c-0.21,0-0.41,0.01-0.62,0.06
		c0,0,0,0,0,0c-0.2,0.05-0.39,0.12-0.58,0.22c-0.04,0.02-0.07,0.04-0.1,0.06c-0.07,0.04-0.14,0.07-0.21,0.12
		c-1.17,0.82-28.9,20.29-41.39,38.42C107.06,69.43,105,84.24,104.91,84.87c-0.18,1.4,0.8,2.68,2.2,2.87
		c0.11,0.02,0.23,0.02,0.34,0.02c1.26,0,2.36-0.93,2.53-2.22c0.02-0.14,2.04-14.3,13.86-31.45c5.34-7.74,13.84-15.92,21.64-22.63
		c-5.26,7.39-11.32,16.99-17.26,28.8c-5.81,11.58-5.89,24.76-5.89,25.32c0,1.41,1.14,2.56,2.55,2.56c0,0,0,0,0,0
		c1.41,0,2.56-1.14,2.56-2.55c0-0.12,0.09-12.56,5.35-23.02c10.87-21.62,22.37-35.85,27.98-42.14c0.87,6.46,1.95,18.18,0.42,29.47
		c-0.05,0.39-0.01,0.77,0.11,1.12c-1.97,0.19-3.96-0.12-4.84-0.35c-1.36-0.35-2.76,0.46-3.12,1.83c-0.36,1.37,0.46,2.77,1.83,3.12
		c0.71,0.19,7.12,1.74,11.86-1.14c0.41-0.25,0.82-0.52,1.21-0.79c-0.67,1.77-1.5,3.42-2.49,4.55c-3.3,3.79-10.67,6.29-10.74,6.31
		c-1.03,0.34-1.73,1.3-1.75,2.39s0.66,2.07,1.68,2.44c0.23,0.08,5.38,1.94,10.84,0.59c-1.51,1.66-3.26,3.13-5.2,3.97
		c-6.7,2.91-9.72,3.04-9.71,3.04c-1.19,0-2.23,0.83-2.5,1.99c-0.26,1.17,0.31,2.36,1.39,2.88c0.14,0.07,3.51,1.66,8.45,1.94
		c0.28,0.02,0.56,0.02,0.85,0.01c-1.68,1.1-3.58,2.1-5.61,2.76c-4.75,1.55-7.06,1.56-7.06,1.56c-0.02,0-0.04,0-0.06,0
		c-1.39,0-2.52,1.11-2.56,2.5c-0.03,1.41,1.09,2.58,2.5,2.62c0.02,0,0.05,0,0.09,0c0.59,0,3.41-0.1,8.67-1.82
		c8.84-2.88,15.19-10.66,15.46-10.99c0.73-0.91,0.76-2.2,0.06-3.14c-0.7-0.94-1.94-1.28-3.02-0.84c-0.56,0.23-1.51,0.58-2.61,0.94
		C171.8,73.04,175.57,64.28,175.75,63.87z"/>
</g>
</svg>
