<?xml version="1.0" encoding="utf-8"?>
<!-- Generator: Adobe Illustrator 27.4.0, SVG Export Plug-In . SVG Version: 6.00 Build 0)  -->
<svg version="1.1" id="Artwork" xmlns="http://www.w3.org/2000/svg" xmlns:xlink="http://www.w3.org/1999/xlink" x="0px" y="0px"
	 width="361px" height="361px" viewBox="0 0 361 361" style="enable-background:new 0 0 361 361;" xml:space="preserve">
<style type="text/css">
	.st0{fill:#FFFFFF;}
</style>
<path class="st0" d="M359.975,99.714c-0.022-3.622-0.064-7.243-0.162-10.864c-0.213-7.887-0.678-15.843-2.079-23.642
	c-1.423-7.92-3.746-15.291-7.409-22.486c-3.598-7.068-8.298-13.534-13.906-19.142c-5.608-5.608-12.076-10.309-19.145-13.908
	c-7.191-3.661-14.558-5.983-22.474-7.406c-7.802-1.403-15.761-1.867-23.651-2.081c-3.621-0.098-7.242-0.14-10.864-0.162
	C255.986-0.002,251.686,0,247.386,0H112.613c-4.3,0-8.599-0.002-12.899,0.024c-3.622,0.022-7.243,0.064-10.864,0.162
	c-7.89,0.213-15.849,0.678-23.651,2.081C57.284,3.69,49.917,6.012,42.725,9.673c-7.069,3.598-13.537,8.299-19.145,13.908
	c-5.607,5.608-10.308,12.074-13.906,19.142c-3.663,7.195-5.986,14.566-7.409,22.486C0.864,73.007,0.399,80.963,0.186,88.85
	c-0.098,3.621-0.14,7.242-0.162,10.864C-0.002,104.013,0,108.313,0,112.613v134.775c0,4.3-0.002,8.599,0.024,12.899
	c0.022,3.622,0.064,7.243,0.162,10.864c0.213,7.887,0.678,15.843,2.079,23.642c1.423,7.92,3.746,15.291,7.409,22.486
	c3.598,7.068,8.299,13.534,13.906,19.142c5.608,5.608,12.076,10.309,19.145,13.907c7.191,3.661,14.558,5.983,22.474,7.406
	c7.802,1.403,15.761,1.867,23.651,2.081c3.621,0.098,7.242,0.14,10.864,0.162c4.3,0.026,8.599,0.024,12.899,0.024h134.775
	c4.3,0,8.599,0.002,12.899-0.024c3.622-0.022,7.243-0.064,10.864-0.162c7.89-0.213,15.849-0.678,23.651-2.081
	c7.915-1.423,15.282-3.745,22.474-7.406c7.069-3.598,13.537-8.299,19.145-13.907c5.607-5.608,10.308-12.074,13.906-19.142
	c3.663-7.195,5.986-14.566,7.409-22.486c1.401-7.799,1.866-15.755,2.079-23.642c0.098-3.621,0.14-7.242,0.162-10.864
	c0.026-4.3,0.024-8.599,0.024-12.899V112.613C359.999,108.313,360.001,104.013,359.975,99.714z M207.575,238.577
	c-0.858,10.085-2.487,23.533-4.615,37.23c-1.513,9.747-2.743,15.009-3.863,18.776c-1.816,6.105-8.601,11.446-19.211,11.446
	s-17.396-5.341-19.211-11.446c-1.12-3.767-2.35-9.028-3.864-18.776c-2.127-13.697-3.756-27.145-4.615-37.23
	c-0.901-10.584-1.368-17.203-0.537-24.892c0.43-3.97,1.792-6.757,4.37-9.476c4.938-5.209,13.614-8.549,23.856-8.549
	s18.918,3.34,23.856,8.549c2.578,2.719,3.941,5.506,4.37,9.476C208.943,221.374,208.476,227.993,207.575,238.577z M136.984,213
	c1.033,0.97,1.587,2.348,1.508,3.762c-0.242,4.307-0.154,8.49,0.134,13.219c0.076,1.257-1.333,2.064-2.373,1.354
	c-20.713-14.147-34.247-38.06-33.902-65.054c0.526-41.042,33.441-74.859,74.469-76.448c44.147-1.711,80.609,33.697,80.609,77.458
	c0,26.577-13.451,50.069-33.902,64.041c-1.042,0.712-2.455-0.093-2.377-1.352c0.287-4.726,0.375-8.91,0.132-13.217
	c-0.08-1.416,0.476-2.794,1.51-3.765c12.196-11.447,19.827-27.702,19.827-45.707c0-35.401-29.496-64.046-65.21-62.663
	c-32.861,1.273-59.364,28.117-60.23,60.98C116.686,184.281,124.408,201.196,136.984,213z M206.824,157.85
	c0,14.873-12.061,26.93-26.939,26.93c-14.878,0-26.938-12.057-26.938-26.93s12.06-26.93,26.938-26.93
	C194.763,130.92,206.824,142.977,206.824,157.85z M218.194,276.482c-1.104,0.389-2.225-0.529-2.051-1.686
	c0.597-3.958,1.159-7.937,1.675-11.85c0.183-1.382,1.058-2.578,2.337-3.136c35.674-15.577,60.67-51.182,60.67-92.52
	c0-55.916-45.732-101.356-101.769-100.903c-54.816,0.443-99.576,45.115-100.104,99.914c-0.403,41.756,24.704,77.803,60.658,93.506
	c1.279,0.558,2.161,1.751,2.343,3.134c0.517,3.913,1.08,7.895,1.676,11.855c0.174,1.158-0.947,2.075-2.052,1.686
	c-45.489-15.995-78.065-59.635-77.433-110.652c0.781-62.979,52.404-114.074,115.407-114.253
	c63.978-0.181,116.084,51.797,116.084,115.713C295.635,217.679,263.248,260.64,218.194,276.482z"/>
</svg>
